<svg width="20" height="21" viewBox="0 0 20 21" fill="none" xmlns="http://www.w3.org/2000/svg">
<g clip-path="url(#clip0_201_156)">
<path d="M11.915 10.9253C11.915 11.9824 11.0581 12.8394 10.001 12.8394C8.94385 12.8394 8.08691 11.9824 8.08691 10.9253C8.08691 9.86816 8.94385 9.01123 10.001 9.01123C11.0581 9.01123 11.915 9.86816 11.915 10.9253Z" fill="white"/>
<path d="M14.4774 7.53873C14.3854 7.2894 14.2386 7.06372 14.0479 6.87848C13.8626 6.68774 13.6371 6.54095 13.3876 6.44894C13.1853 6.37036 12.8813 6.27682 12.3215 6.25134C11.7159 6.22372 11.5343 6.21777 10.0011 6.21777C8.46774 6.21777 8.28616 6.22357 7.68069 6.25119C7.12085 6.27682 6.81674 6.37036 6.61456 6.44894C6.36508 6.54095 6.1394 6.68774 5.95432 6.87848C5.76358 7.06372 5.61679 7.28925 5.52463 7.53873C5.44604 7.74106 5.35251 8.04517 5.32703 8.60501C5.29941 9.21048 5.29346 9.39206 5.29346 10.9254C5.29346 12.4586 5.29941 12.6402 5.32703 13.2458C5.35251 13.8057 5.44604 14.1096 5.52463 14.312C5.61679 14.5614 5.76343 14.787 5.95416 14.9722C6.1394 15.1629 6.36493 15.3097 6.61441 15.4017C6.81674 15.4805 7.12085 15.574 7.68069 15.5995C8.28616 15.6271 8.46759 15.6329 10.0009 15.6329C11.5345 15.6329 11.716 15.6271 12.3214 15.5995C12.8812 15.574 13.1853 15.4805 13.3876 15.4017C13.8884 15.2086 14.2842 14.8127 14.4774 14.312C14.556 14.1096 14.6495 13.8057 14.6752 13.2458C14.7028 12.6402 14.7086 12.4586 14.7086 10.9254C14.7086 9.39206 14.7028 9.21048 14.6752 8.60501C14.6497 8.04517 14.5562 7.74106 14.4774 7.53873ZM10.0011 13.8739C8.37253 13.8739 7.05234 12.5538 7.05234 10.9253C7.05234 9.29669 8.37253 7.97665 10.0011 7.97665C11.6295 7.97665 12.9497 9.29669 12.9497 10.9253C12.9497 12.5538 11.6295 13.8739 10.0011 13.8739ZM13.0663 8.54916C12.6857 8.54916 12.3772 8.24063 12.3772 7.86008C12.3772 7.47952 12.6857 7.17099 13.0663 7.17099C13.4468 7.17099 13.7554 7.47952 13.7554 7.86008C13.7552 8.24063 13.4468 8.54916 13.0663 8.54916Z" fill="white"/>
<path d="M10.001 0.925293C4.47897 0.925293 0.000976562 5.40329 0.000976562 10.9253C0.000976562 16.4473 4.47897 20.9253 10.001 20.9253C15.523 20.9253 20.001 16.4473 20.001 10.9253C20.001 5.40329 15.523 0.925293 10.001 0.925293ZM15.7085 13.2927C15.6808 13.904 15.5836 14.3213 15.4417 14.6866C15.1433 15.4579 14.5336 16.0677 13.7623 16.366C13.3971 16.5079 12.9796 16.6049 12.3685 16.6328C11.7562 16.6608 11.5606 16.6675 10.0011 16.6675C8.44153 16.6675 8.24606 16.6608 7.63358 16.6328C7.02246 16.6049 6.60498 16.5079 6.23984 16.366C5.85654 16.2218 5.50955 15.9958 5.22269 15.7036C4.93063 15.4169 4.70465 15.0697 4.56046 14.6866C4.41855 14.3214 4.32135 13.904 4.29358 13.2928C4.26535 12.6804 4.25879 12.4847 4.25879 10.9253C4.25879 9.36584 4.26535 9.17023 4.29343 8.55789C4.3212 7.94662 4.41824 7.5293 4.56015 7.164C4.70435 6.78085 4.93048 6.43372 5.22269 6.147C5.5094 5.8548 5.85654 5.62881 6.23969 5.48462C6.60498 5.34271 7.02231 5.24567 7.63358 5.21774C8.24591 5.18982 8.44153 5.18311 10.001 5.18311C11.5604 5.18311 11.756 5.18982 12.3684 5.2179C12.9796 5.24567 13.397 5.34271 13.7623 5.48447C14.1454 5.62866 14.4926 5.8548 14.7794 6.147C15.0715 6.43387 15.2976 6.78085 15.4417 7.164C15.5837 7.5293 15.6808 7.94662 15.7087 8.55789C15.7366 9.17023 15.7432 9.36584 15.7432 10.9253C15.7432 12.4847 15.7366 12.6804 15.7085 13.2927Z" fill="white"/>
</g>
<defs>
<clipPath id="clip0_201_156">
<rect width="20" height="20" fill="white" transform="translate(0.000976562 0.925293)"/>
</clipPath>
</defs>
</svg>
