<svg width="145" height="24" viewBox="0 0 145 24" fill="none" xmlns="http://www.w3.org/2000/svg">
<path d="M0.992977 18.4663V1.66631H8.62498C10.449 1.66631 12.057 2.01831 13.449 2.72231C14.841 3.41031 15.929 4.37831 16.713 5.62631C17.497 6.87431 17.889 8.35431 17.889 10.0663C17.889 11.7623 17.497 13.2423 16.713 14.5063C15.929 15.7543 14.841 16.7303 13.449 17.4343C12.057 18.1223 10.449 18.4663 8.62498 18.4663H0.992977ZM4.88098 15.2743H8.43298C9.55298 15.2743 10.521 15.0663 11.337 14.6503C12.169 14.2183 12.809 13.6103 13.257 12.8263C13.721 12.0423 13.953 11.1223 13.953 10.0663C13.953 8.99431 13.721 8.07431 13.257 7.30631C12.809 6.52231 12.169 5.92231 11.337 5.50631C10.521 5.07431 9.55298 4.85831 8.43298 4.85831H4.88098V15.2743ZM26.0051 18.6583C24.9331 18.6583 23.9731 18.4503 23.1251 18.0343C22.2931 17.6183 21.6451 16.9863 21.1811 16.1383C20.7171 15.2743 20.4851 14.1783 20.4851 12.8503V5.55431H24.2291V12.2983C24.2291 13.3703 24.4531 14.1623 24.9011 14.6743C25.3651 15.1703 26.0131 15.4183 26.8451 15.4183C27.4211 15.4183 27.9331 15.2983 28.3811 15.0583C28.8291 14.8023 29.1811 14.4183 29.4371 13.9063C29.6931 13.3783 29.8211 12.7223 29.8211 11.9383V5.55431H33.5651V18.4663H30.0131V14.9143L30.6611 15.9463C30.2291 16.8423 29.5891 17.5223 28.7411 17.9863C27.9091 18.4343 26.9971 18.6583 26.0051 18.6583ZM42.5777 18.6583C41.3617 18.6583 40.2657 18.3863 39.2897 17.8423C38.3137 17.2823 37.5377 16.5063 36.9617 15.5143C36.4017 14.5223 36.1217 13.3543 36.1217 12.0103C36.1217 10.6503 36.4017 9.47431 36.9617 8.48231C37.5377 7.49031 38.3137 6.72231 39.2897 6.17831C40.2657 5.63431 41.3617 5.36231 42.5777 5.36231C43.6657 5.36231 44.6177 5.60231 45.4337 6.08231C46.2497 6.56231 46.8817 7.29031 47.3297 8.26631C47.7777 9.24231 48.0017 10.4903 48.0017 12.0103C48.0017 13.5143 47.7857 14.7623 47.3537 15.7543C46.9217 16.7303 46.2977 17.4583 45.4817 17.9383C44.6817 18.4183 43.7137 18.6583 42.5777 18.6583ZM43.2257 15.5863C43.8337 15.5863 44.3857 15.4423 44.8817 15.1543C45.3777 14.8663 45.7697 14.4583 46.0577 13.9303C46.3617 13.3863 46.5137 12.7463 46.5137 12.0103C46.5137 11.2583 46.3617 10.6183 46.0577 10.0903C45.7697 9.56231 45.3777 9.15431 44.8817 8.86631C44.3857 8.57831 43.8337 8.43431 43.2257 8.43431C42.6017 8.43431 42.0417 8.57831 41.5457 8.86631C41.0497 9.15431 40.6497 9.56231 40.3457 10.0903C40.0577 10.6183 39.9137 11.2583 39.9137 12.0103C39.9137 12.7463 40.0577 13.3863 40.3457 13.9303C40.6497 14.4583 41.0497 14.8663 41.5457 15.1543C42.0417 15.4423 42.6017 15.5863 43.2257 15.5863ZM46.6097 18.4663V15.8263L46.6817 11.9863L46.4417 8.17031V0.658308H50.1857V18.4663H46.6097ZM60.0589 18.6583C58.5869 18.6583 57.2909 18.3703 56.1709 17.7943C55.0669 17.2183 54.2109 16.4343 53.6029 15.4423C52.9949 14.4343 52.6909 13.2903 52.6909 12.0103C52.6909 10.7143 52.9869 9.57031 53.5789 8.57831C54.1869 7.57031 55.0109 6.78631 56.0509 6.22631C57.0909 5.65031 58.2669 5.36231 59.5789 5.36231C60.8429 5.36231 61.9789 5.63431 62.9869 6.17831C64.0109 6.70631 64.8189 7.47431 65.4109 8.48231C66.0029 9.47431 66.2989 10.6663 66.2989 12.0583C66.2989 12.2023 66.2909 12.3703 66.2749 12.5623C66.2589 12.7383 66.2429 12.9063 66.2269 13.0663H55.7389V10.8823H64.2589L62.8189 11.5303C62.8189 10.8583 62.6829 10.2743 62.4109 9.77831C62.1389 9.28231 61.7629 8.89831 61.2829 8.62631C60.8029 8.33831 60.2429 8.19431 59.6029 8.19431C58.9629 8.19431 58.3949 8.33831 57.8989 8.62631C57.4189 8.89831 57.0429 9.29031 56.7709 9.80231C56.4989 10.2983 56.3629 10.8903 56.3629 11.5783V12.1543C56.3629 12.8583 56.5149 13.4823 56.8189 14.0263C57.1389 14.5543 57.5789 14.9623 58.1389 15.2503C58.7149 15.5223 59.3869 15.6583 60.1549 15.6583C60.8429 15.6583 61.4429 15.5543 61.9549 15.3463C62.4829 15.1383 62.9629 14.8263 63.3949 14.4103L65.3869 16.5703C64.7949 17.2423 64.0509 17.7623 63.1549 18.1303C62.2589 18.4823 61.2269 18.6583 60.0589 18.6583ZM74.5755 18.7543C73.2315 18.7543 71.9435 18.5783 70.7115 18.2263C69.4795 17.8583 68.4875 17.3863 67.7355 16.8103L69.0555 13.8823C69.7755 14.3943 70.6235 14.8183 71.5995 15.1543C72.5915 15.4743 73.5915 15.6343 74.5995 15.6343C75.3675 15.6343 75.9835 15.5623 76.4475 15.4183C76.9275 15.2583 77.2795 15.0423 77.5035 14.7703C77.7275 14.4983 77.8395 14.1863 77.8395 13.8343C77.8395 13.3863 77.6635 13.0343 77.3115 12.7783C76.9595 12.5063 76.4955 12.2903 75.9195 12.1303C75.3435 11.9543 74.7035 11.7943 73.9995 11.6503C73.3115 11.4903 72.6155 11.2983 71.9115 11.0743C71.2235 10.8503 70.5915 10.5623 70.0155 10.2103C69.4395 9.85831 68.9675 9.39431 68.5995 8.81831C68.2475 8.24231 68.0715 7.50631 68.0715 6.61031C68.0715 5.65031 68.3275 4.77831 68.8395 3.99431C69.3675 3.19431 70.1515 2.56231 71.1915 2.09831C72.2475 1.61831 73.5675 1.37831 75.1515 1.37831C76.2075 1.37831 77.2475 1.50631 78.2715 1.76231C79.2955 2.00231 80.1995 2.37031 80.9835 2.86631L79.7835 5.81831C78.9995 5.37031 78.2155 5.04231 77.4315 4.83431C76.6475 4.61031 75.8795 4.49831 75.1275 4.49831C74.3755 4.49831 73.7595 4.58631 73.2795 4.76231C72.7995 4.93831 72.4555 5.17031 72.2475 5.45831C72.0395 5.73031 71.9355 6.05031 71.9355 6.41831C71.9355 6.85031 72.1115 7.20231 72.4635 7.47431C72.8155 7.73031 73.2795 7.93831 73.8555 8.09831C74.4315 8.25831 75.0635 8.41831 75.7515 8.57831C76.4555 8.73831 77.1515 8.92231 77.8395 9.13031C78.5435 9.33831 79.1835 9.61831 79.7595 9.97031C80.3355 10.3223 80.7995 10.7863 81.1515 11.3623C81.5195 11.9383 81.7035 12.6663 81.7035 13.5463C81.7035 14.4903 81.4395 15.3543 80.9115 16.1383C80.3835 16.9223 79.5915 17.5543 78.5355 18.0343C77.4955 18.5143 76.1755 18.7543 74.5755 18.7543ZM91.9442 5.36231C92.9682 5.36231 93.8802 5.57031 94.6802 5.98631C95.4962 6.38631 96.1362 7.01031 96.6002 7.85831C97.0642 8.69031 97.2962 9.76231 97.2962 11.0743V18.4663H93.5522V11.6503C93.5522 10.6103 93.3202 9.84231 92.8562 9.34631C92.4082 8.85031 91.7682 8.60231 90.9362 8.60231C90.3442 8.60231 89.8082 8.73031 89.3282 8.98631C88.8642 9.22631 88.4962 9.60231 88.2242 10.1143C87.9682 10.6263 87.8402 11.2823 87.8402 12.0823V18.4663H84.0962V0.658308H87.8402V9.13031L87.0002 8.05031C87.4642 7.18631 88.1282 6.52231 88.9922 6.05831C89.8562 5.59431 90.8402 5.36231 91.9442 5.36231ZM108.61 18.4663V15.9463L108.37 15.3943V10.8823C108.37 10.0823 108.122 9.45831 107.626 9.01031C107.146 8.56231 106.402 8.33831 105.394 8.33831C104.706 8.33831 104.026 8.45031 103.354 8.67431C102.698 8.88231 102.138 9.17031 101.674 9.53831L100.33 6.92231C101.034 6.42631 101.882 6.04231 102.874 5.77031C103.866 5.49831 104.874 5.36231 105.898 5.36231C107.866 5.36231 109.394 5.82631 110.482 6.75431C111.57 7.68231 112.114 9.13031 112.114 11.0983V18.4663H108.61ZM104.674 18.6583C103.666 18.6583 102.802 18.4903 102.082 18.1543C101.362 17.8023 100.81 17.3303 100.426 16.7383C100.042 16.1463 99.8499 15.4823 99.8499 14.7463C99.8499 13.9783 100.034 13.3063 100.402 12.7303C100.786 12.1543 101.386 11.7063 102.202 11.3863C103.018 11.0503 104.082 10.8823 105.394 10.8823H108.826V13.0663H105.802C104.922 13.0663 104.314 13.2103 103.978 13.4983C103.658 13.7863 103.498 14.1463 103.498 14.5783C103.498 15.0583 103.682 15.4423 104.05 15.7303C104.434 16.0023 104.954 16.1383 105.61 16.1383C106.234 16.1383 106.794 15.9943 107.29 15.7063C107.786 15.4023 108.146 14.9623 108.37 14.3863L108.946 16.1143C108.674 16.9463 108.178 17.5783 107.458 18.0103C106.738 18.4423 105.81 18.6583 104.674 18.6583ZM123.134 18.6583C122.046 18.6583 121.094 18.4183 120.278 17.9383C119.462 17.4583 118.822 16.7303 118.358 15.7543C117.91 14.7623 117.686 13.5143 117.686 12.0103C117.686 10.4903 117.902 9.24231 118.334 8.26631C118.766 7.29031 119.39 6.56231 120.206 6.08231C121.022 5.60231 121.998 5.36231 123.134 5.36231C124.35 5.36231 125.438 5.64231 126.398 6.20231C127.374 6.74631 128.142 7.51431 128.702 8.50631C129.278 9.49831 129.566 10.6663 129.566 12.0103C129.566 13.3703 129.278 14.5463 128.702 15.5383C128.142 16.5303 127.374 17.2983 126.398 17.8423C125.438 18.3863 124.35 18.6583 123.134 18.6583ZM115.502 23.1223V5.55431H119.078V8.19431L119.006 12.0343L119.246 15.8503V23.1223H115.502ZM122.486 15.5863C123.11 15.5863 123.662 15.4423 124.142 15.1543C124.638 14.8663 125.03 14.4583 125.318 13.9303C125.622 13.3863 125.774 12.7463 125.774 12.0103C125.774 11.2583 125.622 10.6183 125.318 10.0903C125.03 9.56231 124.638 9.15431 124.142 8.86631C123.662 8.57831 123.11 8.43431 122.486 8.43431C121.862 8.43431 121.302 8.57831 120.806 8.86631C120.31 9.15431 119.918 9.56231 119.63 10.0903C119.342 10.6183 119.198 11.2583 119.198 12.0103C119.198 12.7463 119.342 13.3863 119.63 13.9303C119.918 14.4583 120.31 14.8663 120.806 15.1543C121.302 15.4423 121.862 15.5863 122.486 15.5863ZM138.481 18.6583C137.009 18.6583 135.713 18.3703 134.593 17.7943C133.489 17.2183 132.633 16.4343 132.025 15.4423C131.417 14.4343 131.113 13.2903 131.113 12.0103C131.113 10.7143 131.409 9.57031 132.001 8.57831C132.609 7.57031 133.433 6.78631 134.473 6.22631C135.513 5.65031 136.689 5.36231 138.001 5.36231C139.265 5.36231 140.401 5.63431 141.409 6.17831C142.433 6.70631 143.241 7.47431 143.833 8.48231C144.425 9.47431 144.721 10.6663 144.721 12.0583C144.721 12.2023 144.713 12.3703 144.697 12.5623C144.681 12.7383 144.665 12.9063 144.649 13.0663H134.161V10.8823H142.681L141.241 11.5303C141.241 10.8583 141.105 10.2743 140.833 9.77831C140.561 9.28231 140.185 8.89831 139.705 8.62631C139.225 8.33831 138.665 8.19431 138.025 8.19431C137.385 8.19431 136.817 8.33831 136.321 8.62631C135.841 8.89831 135.465 9.29031 135.193 9.80231C134.921 10.2983 134.785 10.8903 134.785 11.5783V12.1543C134.785 12.8583 134.937 13.4823 135.241 14.0263C135.561 14.5543 136.001 14.9623 136.561 15.2503C137.137 15.5223 137.809 15.6583 138.577 15.6583C139.265 15.6583 139.865 15.5543 140.377 15.3463C140.905 15.1383 141.385 14.8263 141.817 14.4103L143.809 16.5703C143.217 17.2423 142.473 17.7623 141.577 18.1303C140.681 18.4823 139.649 18.6583 138.481 18.6583Z" fill="white"/>
</svg>
