<svg width="20" height="21" viewBox="0 0 20 21" fill="none" xmlns="http://www.w3.org/2000/svg">
<g clip-path="url(#clip0_201_161)">
<path d="M10.001 20.9253C15.5239 20.9253 20.001 16.4482 20.001 10.9253C20.001 5.40245 15.5239 0.925293 10.001 0.925293C4.47814 0.925293 0.000976562 5.40245 0.000976562 10.9253C0.000976562 16.4482 4.47814 20.9253 10.001 20.9253Z" fill="white"/>
<path d="M17.0718 3.85327C20.977 7.75886 20.9774 14.0908 17.0718 17.9963C13.1665 21.9016 6.8343 21.9018 2.92871 17.9963L17.0718 3.85327Z" fill="white"/>
<path d="M19.8003 12.9279L14.851 7.97876L9.01376 8.64337L5.48291 14.1097L12.0806 20.7072C15.9596 19.8866 19.0092 16.8182 19.8003 12.9279Z" fill="white"/>
<path d="M15.2343 8.99531C15.2343 8.15701 14.5552 7.47754 13.7173 7.47754H6.60017C5.7625 7.47754 5.0835 8.15717 5.0835 8.99531V13.0653C5.0835 13.9036 5.76262 14.583 6.60017 14.583H13.7172C14.5552 14.583 15.2342 13.9034 15.2342 13.0653V8.99531H15.2343ZM9.1435 12.7473V8.92458L12.0424 10.836L9.1435 12.7473Z" fill="#305F64"/>
</g>
<defs>
<clipPath id="clip0_201_161">
<rect width="20" height="20" fill="white" transform="translate(0.000976562 0.925293)"/>
</clipPath>
</defs>
</svg>
